# xmcd
#
# Track frame offsets: 
#        150
#        16566
#        29388
#        49172
#        73281
#        95001
#        114539
#        122447
#        137714
#        154707
#        181501
#        198570
#
# Disc length: 2760 seconds
#
# Revision: 0
# Processed by: cddbd v1.5.2PL0 Copyright (c) Steve Scherf et al.
# Submitted via: ExactAudioCopy v1.0b3
#
DISCID=9b0ac60c
DTITLE=Integrity Music - Pure Worship: Refresh 
DYEAR=2008
DGENRE=Praise and Worship
TTITLE0=Times Of Refreshing
TTITLE1=Highest Place
TTITLE2=I Worship You Almighty God
TTITLE3=Praise Him
TTITLE4=I Stand In Awe
TTITLE5=Like A Shepherd
TTITLE6=Jesus Name Above All Names
TTITLE7=I Exalt Thee
TTITLE8=Exalt The Lord Our God
TTITLE9=Yahweh Is Holy
TTITLE10=Be Glorified
TTITLE11=I Will Come And Bow Down
EXTD=
EXTT0=
EXTT1=
EXTT2=
EXTT3=
EXTT4=
EXTT5=
EXTT6=
EXTT7=
EXTT8=
EXTT9=
EXTT10=
EXTT11=
PLAYORDER=
